<svg width="157" height="36" viewBox="0 0 157 36" fill="none" xmlns="http://www.w3.org/2000/svg">
<path d="M48.32 27V9.18H52.962C53.7247 9.18 54.4433 9.23867 55.118 9.356C55.8073 9.47334 56.416 9.70067 56.944 10.038C57.472 10.3607 57.8827 10.83 58.176 11.446C58.484 12.0473 58.638 12.8467 58.638 13.844C58.638 14.5627 58.528 15.1713 58.308 15.67C58.1027 16.154 57.802 16.5427 57.406 16.836C57.0247 17.1293 56.5627 17.3273 56.02 17.43C56.7093 17.518 57.2887 17.7453 57.758 18.112C58.2273 18.464 58.5793 18.9407 58.814 19.542C59.0633 20.1433 59.188 20.8693 59.188 21.72C59.188 22.644 59.0633 23.4433 58.814 24.118C58.5793 24.778 58.2347 25.3207 57.78 25.746C57.3253 26.1713 56.7607 26.4867 56.086 26.692C55.426 26.8973 54.6633 27 53.798 27H48.32ZM52.258 24.25H53.094C53.9593 24.25 54.5533 24.03 54.876 23.59C55.2133 23.15 55.382 22.5047 55.382 21.654C55.382 20.9793 55.3087 20.444 55.162 20.048C55.0153 19.652 54.7733 19.366 54.436 19.19C54.0987 18.9993 53.644 18.904 53.072 18.904H52.258V24.25ZM52.258 16.308H53.028C53.6293 16.308 54.084 16.22 54.392 16.044C54.7 15.8533 54.9053 15.582 55.008 15.23C55.1253 14.878 55.184 14.4527 55.184 13.954C55.184 13.4847 55.096 13.096 54.92 12.788C54.7587 12.4653 54.5093 12.2233 54.172 12.062C53.8493 11.9007 53.4387 11.82 52.94 11.82H52.258V16.308Z" fill="#333333"/>
<path d="M60.3526 27L63.7186 9.18H68.2066L71.5286 27H67.8986L67.3046 23.238H64.6866L64.0706 27H60.3526ZM65.0386 20.884H66.9306L65.9846 13.932L65.0386 20.884Z" fill="#333333"/>
<path d="M73.3278 27V9.18H78.2338C79.4365 9.18 80.4778 9.312 81.3578 9.576C82.2378 9.84 82.9198 10.3167 83.4038 11.006C83.9025 11.6807 84.1518 12.6413 84.1518 13.888C84.1518 14.6213 84.0931 15.274 83.9758 15.846C83.8585 16.418 83.6385 16.9167 83.3158 17.342C83.0078 17.7527 82.5605 18.0973 81.9738 18.376L84.4158 27H80.3458L78.3878 19.014H77.2658V27H73.3278ZM77.2658 16.748H78.3658C78.9231 16.748 79.3558 16.6527 79.6638 16.462C79.9718 16.2567 80.1845 15.9707 80.3018 15.604C80.4338 15.2227 80.4998 14.768 80.4998 14.24C80.4998 13.4773 80.3605 12.8833 80.0818 12.458C79.8031 12.0327 79.2898 11.82 78.5418 11.82H77.2658V16.748Z" fill="#333333"/>
<path d="M86.5192 27V9.18H91.1612C91.9239 9.18 92.6426 9.23867 93.3172 9.356C94.0066 9.47334 94.6152 9.70067 95.1432 10.038C95.6712 10.3607 96.0819 10.83 96.3752 11.446C96.6832 12.0473 96.8372 12.8467 96.8372 13.844C96.8372 14.5627 96.7272 15.1713 96.5072 15.67C96.3019 16.154 96.0012 16.5427 95.6052 16.836C95.2239 17.1293 94.7619 17.3273 94.2192 17.43C94.9086 17.518 95.4879 17.7453 95.9572 18.112C96.4266 18.464 96.7786 18.9407 97.0132 19.542C97.2626 20.1433 97.3872 20.8693 97.3872 21.72C97.3872 22.644 97.2626 23.4433 97.0132 24.118C96.7786 24.778 96.4339 25.3207 95.9792 25.746C95.5246 26.1713 94.9599 26.4867 94.2852 26.692C93.6252 26.8973 92.8626 27 91.9972 27H86.5192ZM90.4572 24.25H91.2932C92.1586 24.25 92.7526 24.03 93.0752 23.59C93.4126 23.15 93.5812 22.5047 93.5812 21.654C93.5812 20.9793 93.5079 20.444 93.3612 20.048C93.2146 19.652 92.9726 19.366 92.6352 19.19C92.2979 18.9993 91.8432 18.904 91.2712 18.904H90.4572V24.25ZM90.4572 16.308H91.2272C91.8286 16.308 92.2832 16.22 92.5912 16.044C92.8992 15.8533 93.1046 15.582 93.2072 15.23C93.3246 14.878 93.3832 14.4527 93.3832 13.954C93.3832 13.4847 93.2952 13.096 93.1192 12.788C92.9579 12.4653 92.7086 12.2233 92.3712 12.062C92.0486 11.9007 91.6379 11.82 91.1392 11.82H90.4572V16.308Z" fill="#333333"/>
<path d="M99.4528 27V9.18H107.461V11.864H103.391V16.286H106.493V19.014H103.391V24.338H107.505V27H99.4528Z" fill="#333333"/>
<path d="M109.293 27V9.18H114.199C115.401 9.18 116.443 9.312 117.323 9.576C118.203 9.84 118.885 10.3167 119.369 11.006C119.867 11.6807 120.117 12.6413 120.117 13.888C120.117 14.6213 120.058 15.274 119.941 15.846C119.823 16.418 119.603 16.9167 119.281 17.342C118.973 17.7527 118.525 18.0973 117.939 18.376L120.381 27H116.311L114.353 19.014H113.231V27H109.293ZM113.231 16.748H114.331C114.888 16.748 115.321 16.6527 115.629 16.462C115.937 16.2567 116.149 15.9707 116.267 15.604C116.399 15.2227 116.465 14.768 116.465 14.24C116.465 13.4773 116.325 12.8833 116.047 12.458C115.768 12.0327 115.255 11.82 114.507 11.82H113.231V16.748Z" fill="#333333"/>
<path d="M124.926 27V12.106H122.242V9.18H131.548V12.106H128.886V27H124.926Z" fill="#C21919"/>
<path d="M138.049 27.264C136.714 27.264 135.658 27.0293 134.881 26.56C134.104 26.0907 133.546 25.416 133.209 24.536C132.872 23.656 132.703 22.6073 132.703 21.39V14.768C132.703 13.536 132.872 12.4873 133.209 11.622C133.546 10.7567 134.104 10.0967 134.881 9.642C135.658 9.17267 136.714 8.938 138.049 8.938C139.398 8.938 140.462 9.17267 141.239 9.642C142.031 10.0967 142.596 10.7567 142.933 11.622C143.27 12.4873 143.439 13.536 143.439 14.768V21.39C143.439 22.6073 143.27 23.656 142.933 24.536C142.596 25.416 142.031 26.0907 141.239 26.56C140.462 27.0293 139.398 27.264 138.049 27.264ZM138.049 24.47C138.46 24.47 138.76 24.3673 138.951 24.162C139.142 23.9567 139.266 23.6927 139.325 23.37C139.384 23.0473 139.413 22.7173 139.413 22.38V13.8C139.413 13.448 139.384 13.118 139.325 12.81C139.266 12.4873 139.142 12.2233 138.951 12.018C138.76 11.8127 138.46 11.71 138.049 11.71C137.668 11.71 137.382 11.8127 137.191 12.018C137 12.2233 136.876 12.4873 136.817 12.81C136.758 13.118 136.729 13.448 136.729 13.8V22.38C136.729 22.7173 136.751 23.0473 136.795 23.37C136.854 23.6927 136.971 23.9567 137.147 24.162C137.338 24.3673 137.638 24.47 138.049 24.47Z" fill="#C21919"/>
<path d="M145.836 27V9.18H151.82C152.89 9.18 153.77 9.38534 154.46 9.796C155.149 10.192 155.662 10.7787 156 11.556C156.337 12.3187 156.506 13.25 156.506 14.35C156.506 15.7287 156.278 16.7847 155.824 17.518C155.369 18.2367 154.753 18.7353 153.976 19.014C153.198 19.2927 152.326 19.432 151.358 19.432H149.774V27H145.836ZM149.774 16.682H151.094C151.578 16.682 151.944 16.594 152.194 16.418C152.443 16.242 152.604 15.978 152.678 15.626C152.766 15.274 152.81 14.8267 152.81 14.284C152.81 13.8293 152.773 13.4333 152.7 13.096C152.641 12.744 152.487 12.4653 152.238 12.26C151.988 12.0547 151.6 11.952 151.072 11.952H149.774V16.682Z" fill="#C21919"/>
<path d="M40 6.38085C38.1517 3.74124 34.4769 3.04562 31.8368 4.8939L18.262 14.399L13.3258 10.9423C15.1638 7.76898 14.2992 3.66265 11.2391 1.52015C8.0075 -0.741881 3.55508 0.0431195 1.29211 3.27406C-0.969845 6.50515 -0.18547 10.9585 3.04617 13.2215C5.26367 14.7741 8.05687 14.8905 10.3219 13.7669L16.3678 18.0002L10.3224 22.2329C8.05742 21.1098 5.26437 21.2262 3.04672 22.7784C-0.184767 25.0413 -0.96922 29.4942 1.29265 32.7252C3.55562 35.9567 8.00852 36.7417 11.2395 34.4797C14.2993 32.3372 15.1637 28.2309 13.3263 25.0576L18.2624 21.6009L31.8367 31.1054C34.4768 32.9542 38.1516 32.2581 39.9999 29.6184L23.4054 18.0001L40 6.38085ZM7.15836 11.089C5.11359 11.089 3.45586 9.43124 3.45586 7.38648C3.45586 5.34171 5.11367 3.68398 7.15836 3.68398C9.20359 3.68398 10.8609 5.34171 10.8609 7.38648C10.8609 9.43124 9.20359 11.089 7.15836 11.089ZM7.15836 32.3166C5.11359 32.3166 3.45586 30.6589 3.45586 28.6141C3.45586 26.5694 5.11359 24.9116 7.15836 24.9116C9.20359 24.9116 10.8609 26.5694 10.8609 28.6141C10.8609 30.6588 9.20359 32.3166 7.15836 32.3166Z" fill="#333333"/>
</svg>
